<svg width="180" height="60" viewBox="0 0 180 60" fill="none" xmlns="http://www.w3.org/2000/svg">
<path d="M50.6417 25.5043H24.0571L14.9873 34.502H38.2025L21.3559 51.3583C23.0485 53.0498 25.3435 54 27.7365 54C30.1294 54 32.4244 53.0498 34.117 51.3583L57.3419 28.1335C56.4667 27.257 55.4197 26.571 54.2666 26.1185C53.1136 25.6661 51.8794 25.4569 50.6417 25.5043V25.5043Z" fill="white"/>
<path d="M26.2825 23.2885H39.0436L49.7573 12.5797C48.0646 10.8882 45.7696 9.93805 43.3767 9.93805C40.9837 9.93805 38.6887 10.8882 36.9961 12.5797L26.2825 23.2885Z" fill="white"/>
<path d="M33.8719 35.8094H21.1107L10.4211 46.523C12.1138 48.2145 14.4088 49.1647 16.8017 49.1647C19.1947 49.1647 21.4897 48.2145 23.1823 46.523L33.8719 35.8094Z" fill="white"/>
<path d="M38.9812 8.64325C38.1438 7.80527 37.1495 7.14052 36.0551 6.68698C34.9607 6.23344 33.7877 6 32.603 6C31.4184 6 30.2453 6.23344 29.1509 6.68698C28.0565 7.14052 27.0622 7.80527 26.2249 8.64325L3 31.8681C3.83738 32.7061 4.83168 33.3708 5.92608 33.8244C7.02048 34.2779 8.19352 34.5114 9.37818 34.5114C10.5628 34.5114 11.7359 34.2779 12.8303 33.8244C13.9247 33.3708 14.919 32.7061 15.7564 31.8681L38.9812 8.64325Z" fill="white"/>
<path d="M95.9318 25H92.4091C92.2008 23.9867 91.8362 23.0966 91.3153 22.3295C90.804 21.5625 90.179 20.9186 89.4403 20.3977C88.7112 19.8674 87.9015 19.4697 87.0114 19.2045C86.1212 18.9394 85.1932 18.8068 84.2273 18.8068C82.4659 18.8068 80.8703 19.2519 79.4403 20.142C78.0199 21.0322 76.8883 22.3438 76.0455 24.0767C75.2121 25.8097 74.7955 27.9356 74.7955 30.4545C74.7955 32.9735 75.2121 35.0994 76.0455 36.8324C76.8883 38.5653 78.0199 39.8769 79.4403 40.767C80.8703 41.6572 82.4659 42.1023 84.2273 42.1023C85.1932 42.1023 86.1212 41.9697 87.0114 41.7045C87.9015 41.4394 88.7112 41.0464 89.4403 40.5256C90.179 39.9953 90.804 39.3466 91.3153 38.5795C91.8362 37.803 92.2008 36.9129 92.4091 35.9091H95.9318C95.6667 37.3958 95.1837 38.7263 94.483 39.9006C93.7822 41.0748 92.911 42.0739 91.8693 42.8977C90.8277 43.7121 89.6581 44.3324 88.3608 44.7585C87.0729 45.1847 85.6951 45.3977 84.2273 45.3977C81.7462 45.3977 79.5398 44.7917 77.608 43.5795C75.6761 42.3674 74.1563 40.6439 73.0483 38.4091C71.9403 36.1742 71.3864 33.5227 71.3864 30.4545C71.3864 27.3864 71.9403 24.7348 73.0483 22.5C74.1563 20.2652 75.6761 18.5417 77.608 17.3295C79.5398 16.1174 81.7462 15.5114 84.2273 15.5114C85.6951 15.5114 87.0729 15.7244 88.3608 16.1506C89.6581 16.5767 90.8277 17.2017 91.8693 18.0256C92.911 18.84 93.7822 19.8343 94.483 21.0085C95.1837 22.1733 95.6667 23.5038 95.9318 25ZM101.624 15.9091H105.829L115.715 40.0568H116.056L125.942 15.9091H130.147V45H126.852V22.8977H126.567L117.477 45H114.295L105.204 22.8977H104.92V45H101.624V15.9091ZM153.119 23.1818C152.949 21.7424 152.258 20.625 151.045 19.8295C149.833 19.0341 148.347 18.6364 146.585 18.6364C145.297 18.6364 144.17 18.8447 143.205 19.2614C142.248 19.678 141.5 20.2509 140.96 20.9801C140.43 21.7093 140.165 22.5379 140.165 23.4659C140.165 24.2424 140.349 24.91 140.719 25.4688C141.098 26.018 141.58 26.4773 142.168 26.8466C142.755 27.2064 143.37 27.5047 144.014 27.7415C144.658 27.9687 145.25 28.1534 145.79 28.2955L148.744 29.0909C149.502 29.2898 150.345 29.5644 151.273 29.9148C152.21 30.2652 153.105 30.7434 153.957 31.3494C154.819 31.946 155.529 32.7131 156.088 33.6506C156.647 34.5881 156.926 35.7386 156.926 37.1023C156.926 38.6742 156.514 40.0947 155.69 41.3636C154.876 42.6326 153.683 43.6411 152.111 44.3892C150.548 45.1373 148.65 45.5114 146.415 45.5114C144.331 45.5114 142.527 45.1752 141.003 44.5028C139.488 43.8305 138.295 42.893 137.423 41.6903C136.562 40.4877 136.074 39.0909 135.96 37.5H139.597C139.691 38.5985 140.061 39.5076 140.705 40.2273C141.358 40.9375 142.182 41.4678 143.176 41.8182C144.18 42.1591 145.259 42.3295 146.415 42.3295C147.759 42.3295 148.967 42.1117 150.037 41.6761C151.107 41.2311 151.955 40.6155 152.58 39.8295C153.205 39.0341 153.517 38.1061 153.517 37.0455C153.517 36.0795 153.247 35.2936 152.707 34.6875C152.168 34.0814 151.457 33.589 150.577 33.2102C149.696 32.8314 148.744 32.5 147.722 32.2159L144.142 31.1932C141.869 30.5398 140.07 29.607 138.744 28.3949C137.419 27.1828 136.756 25.5966 136.756 23.6364C136.756 22.0076 137.196 20.5871 138.077 19.375C138.967 18.1534 140.16 17.2064 141.656 16.5341C143.162 15.8523 144.843 15.5114 146.699 15.5114C148.574 15.5114 150.241 15.8475 151.699 16.5199C153.157 17.1828 154.313 18.0919 155.165 19.2472C156.027 20.4025 156.481 21.714 156.528 23.1818H153.119Z" fill="white"/>
</svg>
