<svg width="60" height="60" viewBox="0 0 60 60" fill="none" xmlns="http://www.w3.org/2000/svg">
<path d="M50.6417 25.5043H24.0571L14.9873 34.502H38.2025L21.3559 51.3583C23.0485 53.0498 25.3435 54 27.7365 54C30.1294 54 32.4244 53.0498 34.117 51.3583L57.3419 28.1335C56.4667 27.257 55.4197 26.571 54.2666 26.1185C53.1136 25.6661 51.8794 25.4569 50.6417 25.5043V25.5043Z" fill="white"/>
<path d="M26.2825 23.2885H39.0436L49.7573 12.5797C48.0646 10.8882 45.7696 9.93805 43.3767 9.93805C40.9837 9.93805 38.6887 10.8882 36.9961 12.5797L26.2825 23.2885Z" fill="white"/>
<path d="M33.8719 35.8094H21.1107L10.4211 46.523C12.1138 48.2145 14.4088 49.1647 16.8017 49.1647C19.1947 49.1647 21.4897 48.2145 23.1823 46.523L33.8719 35.8094Z" fill="white"/>
<path d="M38.9812 8.64325C38.1438 7.80527 37.1495 7.14052 36.0551 6.68698C34.9607 6.23344 33.7877 6 32.603 6C31.4184 6 30.2453 6.23344 29.1509 6.68698C28.0565 7.14052 27.0622 7.80527 26.2249 8.64325L3 31.8681C3.83738 32.7061 4.83168 33.3708 5.92608 33.8244C7.02048 34.2779 8.19352 34.5114 9.37818 34.5114C10.5628 34.5114 11.7359 34.2779 12.8303 33.8244C13.9247 33.3708 14.919 32.7061 15.7564 31.8681L38.9812 8.64325Z" fill="white"/>
</svg>
